<?xml version="1.0" encoding="UTF-8"?>
<svg width="330px" height="430px" viewBox="0 0 330 430" version="1.1" xmlns="http://www.w3.org/2000/svg" xmlns:xlink="http://www.w3.org/1999/xlink">
    <!-- Generator: Sketch 43.2 (39069) - http://www.bohemiancoding.com/sketch -->
    <title>Group 24</title>
    <desc>Created with Sketch.</desc>
    <defs></defs>
    <g id="Page-1" stroke="none" stroke-width="1" fill="none" fill-rule="evenodd">
        <g id="Group-24" transform="translate(15.000000, 15.000000)" stroke="#232323" stroke-width="30">
            <path d="M0,200 L0,29.9961023 C0,13.4297125 13.4241986,0 30.0001915,0 L269.999809,0 C286.568457,0 300,13.4230941 300,30.0036228 L300,369.996377 C300,386.566921 286.573023,400 270.005775,400 L150,400" id="Rectangle-12" stroke-linecap="round"></path>
            <path d="M84.6410162,72.8911125 C84.6410162,56.3189582 98.0763123,42.8845727 114.643436,42.8845727 L134.638596,42.8845727 C151.208475,42.8845727 164.641016,56.3246369 164.641016,72.8911125 L164.641016,314.330848 C164.641016,330.903002 157.893548,355.939409 149.329866,370.134191 C149.329866,370.134191 131.384429,402.884573 124.641016,402.884573 C117.897604,402.884573 99.9455917,370.123538 99.9455917,370.123538 C91.493108,355.882241 84.6410162,330.897323 84.6410162,314.330848 L84.6410162,72.8911125 Z" id="Rectangle-10" transform="translate(124.641016, 222.884573) rotate(-330.000000) translate(-124.641016, -222.884573) "></path>
        </g>
    </g>
</svg>